<?xml version="1.0" encoding="utf-8"?>
<!-- Generator: Adobe Illustrator 27.3.0, SVG Export Plug-In . SVG Version: 6.00 Build 0)  -->
<svg version="1.1" id="Layer_1" xmlns="http://www.w3.org/2000/svg" xmlns:xlink="http://www.w3.org/1999/xlink" x="0px" y="0px"
	 viewBox="0 150 1000 800" style="enable-background:new 0 150 1000 800;" xml:space="preserve">
<style type="text/css">
	.st0{fill:#FFD24F;}
	.st1{fill:#FFFFFF;}
	.st2{fill-rule:evenodd;clip-rule:evenodd;}
	.st3{fill-rule:evenodd;clip-rule:evenodd;fill:#FFD24F;}
	.st4{fill:none;}
</style>
<g>
	
	

	<g id="XMLID_18_">
		<path id="XMLID_78_" class="st2" d="M196.13,345.09c-0.59,106.88,44.11,221.06,93.79,312.27c47.75,87.66,129.37,209,220.32,250.82
			c91.15,41.91,191.28-83.91,240.15-152.06C819.49,659.78,868.59,556,894.87,438.21c29.16-130.69-3.51-203.4-126.53-240.16
			c-121.09-36.18-246.21-44.7-370.14-17.87C313.07,198.61,190.88,230.63,196.13,345.09z"/>
		<path id="XMLID_77_" class="st3" d="M227.89,360.1c-0.53,97.3,40.15,201.24,85.39,284.27c43.47,79.8,117.77,190.26,200.57,228.33
			c82.98,38.15,174.13-76.38,218.62-138.43c62.89-87.71,107.59-182.18,131.52-289.41c26.54-118.97-3.19-185.16-115.18-218.63
			c-110.23-32.94-224.14-40.69-336.96-16.27C334.35,226.74,223.11,255.9,227.89,360.1z"/>
		<g id="XMLID_55_">
			<path id="XMLID_76_" class="st4" d="M691.53,489.11c7.21-6.77,10.82-15.27,10.82-25.5c0-9.95-3.47-18.31-10.41-25.09
				c-6.94-6.77-16.12-10.16-27.55-10.16h-56.74v70.91h55.11C674.72,499.27,684.31,495.89,691.53,489.11z"/>
			<path id="XMLID_75_" class="st4" d="M486.19,442.05c-7.49-8.02-17.62-12.03-30.41-12.03h-51.84v82.1h51.03
				c12.51,0,22.72-3.87,30.62-11.61c7.89-7.74,11.84-17.55,11.84-29.44C497.42,459.74,493.67,450.07,486.19,442.05z"/>
			<path id="XMLID_74_" class="st4" d="M667.24,547.37h-59.6v76.71h61.23c13.33,0,23.74-3.53,31.23-10.57
				c7.48-7.05,11.23-16.24,11.23-27.58c0-11.33-3.81-20.59-11.43-27.79C692.27,550.97,681.39,547.37,667.24,547.37z"/>
			<path id="XMLID_70_" d="M753.37,549.24c-8.98-12.03-21.09-20.8-36.33-26.33v-3.32c11.7-5.8,21.16-14.16,28.37-25.08
				c7.21-10.92,10.82-23.85,10.82-38.77c0-14.1-3.95-27.09-11.84-38.98c-7.9-11.88-18.71-21.29-32.45-28.2
				c-13.75-6.91-28.78-10.37-45.11-10.37h-85.2v-0.06h-63.89c23.52,12.8,47.05,37.31,50.37,84.36c0.79,5.49,6.33,57.45-59.88,93.74
				l80.12,118.85h82.57c17.69,0,33.81-3.38,48.37-10.16c14.56-6.77,26.13-16.44,34.7-29.03c8.57-12.57,12.86-27.02,12.86-43.33
				C766.84,575.71,762.35,561.26,753.37,549.24z M607.64,428.37h56.74c11.43,0,20.61,3.39,27.55,10.16
				c6.94,6.78,10.41,15.14,10.41,25.09c0,10.23-3.61,18.73-10.82,25.5c-7.21,6.78-16.81,10.16-28.78,10.16h-55.11V428.37z
				 M700.1,613.51c-7.49,7.05-17.9,10.57-31.23,10.57h-61.23v-76.71h59.6c14.15,0,25.04,3.59,32.66,10.78
				c7.62,7.19,11.43,16.45,11.43,27.79C711.33,597.27,707.58,606.46,700.1,613.51z"/>
			<path id="XMLID_69_" class="st4" d="M486.19,442.05c-7.49-8.02-17.62-12.03-30.41-12.03h-51.84v82.1h51.03
				c12.51,0,22.72-3.87,30.62-11.61c7.89-7.74,11.84-17.55,11.84-29.44C497.42,459.74,493.67,450.07,486.19,442.05z"/>
			<g id="XMLID_64_">
				<path id="XMLID_68_" class="st4" d="M486.19,442.05c-7.49-8.02-17.62-12.03-30.41-12.03h-51.84v82.1h51.03
					c12.51,0,22.72-3.87,30.62-11.61c7.89-7.74,11.84-17.55,11.84-29.44C497.42,459.74,493.67,450.07,486.19,442.05z"/>
				<path id="XMLID_65_" d="M487.92,550.88l7.19-3.55c66.4-32.75,59.67-80.89,59.35-82.92l-0.08-0.65
					c-5.8-84.66-83.94-85.63-87.26-85.63h-48.21l0.09,0.06h-70.18v246.85h0.01c0.14,0.97,0.33,1.89,0.51,2.82
					c8.25,42.61,53.51,47.13,54.54,47.22c0.01,0,0.05,0,0.05,0v-50.04h-0.01v-61.5h25.72l75.52,111.54h47.36h15.92h3.19
					L487.92,550.88z M454.96,512.13h-51.03v-82.1h51.84c12.79,0,22.92,4.01,30.41,12.03c7.48,8.02,11.23,17.69,11.23,29.02
					c0,11.89-3.95,21.7-11.84,29.44C477.68,508.26,467.48,512.13,454.96,512.13z"/>
			</g>
		</g>
	</g>
</g>
</svg>
