<svg id="Group_3020" data-name="Group 3020" xmlns="http://www.w3.org/2000/svg" xmlns:xlink="http://www.w3.org/1999/xlink" width="17.956" height="17.395" viewBox="0 0 17.956 17.395">
  <defs>
    <clipPath id="clip-path">
      <rect id="Rectangle_1981" data-name="Rectangle 1981" width="17.956" height="17.395" fill="none"/>
    </clipPath>
  </defs>
  <g id="Group_3019" data-name="Group 3019" clip-path="url(#clip-path)">
    <path id="Path_1119" data-name="Path 1119" d="M12.667,18.361H.67a.67.67,0,1,1,0-1.341h12a3.953,3.953,0,0,0,3.948-3.948.67.67,0,1,1,1.341,0,5.3,5.3,0,0,1-5.289,5.289" transform="translate(0 -4.089)" fill="#050606"/>
    <path id="Path_1120" data-name="Path 1120" d="M4.859,22.032a.668.668,0,0,1-.4-.134L.268,18.758a.671.671,0,0,1-.062-1.02l3.638-3.485a.67.67,0,1,1,.928.968L1.7,18.159l3.557,2.667a.67.67,0,0,1-.4,1.207" transform="translate(0 -4.637)" fill="#050606"/>
    <path id="Path_1121" data-name="Path 1121" d="M.67,10.617A.671.671,0,0,1,0,9.947,5.3,5.3,0,0,1,5.289,4.658h12a.67.67,0,0,1,0,1.341h-12A3.953,3.953,0,0,0,1.341,9.947a.671.671,0,0,1-.67.67" transform="translate(0 -1.536)" fill="#050606"/>
    <path id="Path_1122" data-name="Path 1122" d="M19.759,7.966A.67.67,0,0,1,19.3,6.812l3.067-2.939L18.806,1.207a.67.67,0,1,1,.8-1.073L23.8,3.274a.671.671,0,0,1,.062,1.021L20.223,7.78a.668.668,0,0,1-.464.186" transform="translate(-6.111 0)" fill="#050606"/>
  </g>
</svg>
